<svg width="196" height="44" viewBox="0 0 196 44" fill="none" xmlns="http://www.w3.org/2000/svg">
<g clip-path="url(#clip0_156_131)">
<path d="M39.2752 2.936C38.6019 2.91769 37.9319 3.0366 37.306 3.28547C36.6801 3.53434 36.1114 3.90798 35.6345 4.38365C35.1575 4.85931 34.7824 5.42705 34.5319 6.05231C34.2814 6.67756 34.1607 7.34726 34.1773 8.02063C34.1755 8.6906 34.3062 9.35431 34.5618 9.97362C34.8173 10.5929 35.1928 11.1556 35.6665 11.6294C36.1402 12.1031 36.7029 12.4785 37.3223 12.7341C37.9416 12.9897 38.6053 13.1204 39.2752 13.1186C39.9486 13.1351 40.6183 13.0145 41.2436 12.764C41.8688 12.5135 42.4366 12.1383 42.9122 11.6614C43.3879 11.1845 43.7615 10.6158 44.0104 9.98987C44.2593 9.36396 44.3782 8.69395 44.3599 8.02063C44.3616 7.35241 44.2313 6.69044 43.9764 6.07275C43.7215 5.45506 43.347 4.89383 42.8745 4.42133C42.402 3.94883 41.8408 3.57437 41.2231 3.31947C40.6054 3.06456 39.9435 2.93424 39.2752 2.936Z" fill="white"/>
<path d="M43.7995 19.9915V42.8923H34.8447V19.9915C34.9073 18.8463 35.4063 17.7686 36.2391 16.98C37.0719 16.1914 38.1752 15.752 39.3221 15.752C40.469 15.752 41.5724 16.1914 42.4052 16.98C43.238 17.7686 43.737 18.8463 43.7995 19.9915Z" fill="white"/>
<path d="M84.3701 28.1589C84.3701 19.2175 90.9361 12.6515 100.238 12.6515C109.54 12.6515 115.865 19.2442 115.865 28.1589V30.6679H93.6719C94.3926 34.1244 97.0216 35.6724 100.238 35.6724C102.8 35.6724 104.709 35.1386 105.843 33.5372H115.091C113.183 39.6093 107.578 43.6664 100.238 43.6664C90.9361 43.6664 84.3701 37.1137 84.3701 28.1589ZM106.737 24.9961C106.313 23.638 105.437 22.4658 104.255 21.6744C103.073 20.8829 101.655 20.5199 100.238 20.6454C97.1284 20.6454 94.7529 21.98 93.8587 24.9961H106.737Z" fill="white"/>
<path d="M48.5645 27.8119C48.5645 17.5493 56.198 12.6515 62.8708 12.6515C64.4852 12.5801 66.0923 12.9081 67.5496 13.6065C69.0069 14.3049 70.2693 15.3521 71.2251 16.6551V0.947529H80.1665V27.8653C80.1665 37.7677 73.4938 43.6664 64.4856 43.6664C55.1171 43.6664 48.5645 37.2872 48.5645 27.8119ZM71.2518 28.1589C71.2518 23.9284 68.5026 21.0058 64.4589 21.0058C60.4152 21.0058 57.6527 23.9284 57.6527 28.1589C57.6527 32.3894 60.4019 35.3255 64.4589 35.3255C68.5159 35.3255 71.2251 32.4028 71.2251 28.1589H71.2518Z" fill="white"/>
<path d="M129.064 13.3054C129.064 9.59539 130.865 8.35426 133.361 8.35426C135.856 8.35426 137.658 9.542 137.658 13.3054H146.559C146.559 4.41735 141.221 -0.0400391 133.321 -0.0400391C125.42 -0.0400391 120.082 4.31058 120.082 13.3054V43.1192H129.023V25.7701H142.929V17.7628H129.064V13.3054Z" fill="white"/>
<path d="M159.758 1.65484V39.5159C159.792 40.1245 159.7 40.7334 159.49 41.3055C159.28 41.8777 158.956 42.401 158.537 42.8435C158.118 43.2861 157.613 43.6385 157.053 43.8794C156.493 44.1203 155.89 44.2445 155.281 44.2445C154.672 44.2445 154.068 44.1203 153.509 43.8794C152.949 43.6385 152.444 43.2861 152.025 42.8435C151.606 42.401 151.281 41.8777 151.071 41.3055C150.861 40.7334 150.77 40.1245 150.804 39.5159V1.65484H159.758Z" fill="white"/>
<path d="M163.909 28.1589C163.909 19.2175 170.475 12.6515 179.777 12.6515C189.079 12.6515 195.685 19.2442 195.685 28.1589C195.685 37.0737 189.119 43.6664 179.817 43.6664C170.515 43.6664 163.909 37.1137 163.909 28.1589ZM186.596 28.1589C186.596 23.9284 183.847 21.0058 179.79 21.0058C175.733 21.0058 172.997 23.9284 172.997 28.1589C172.997 32.3894 175.667 35.3255 179.79 35.3255C183.914 35.3255 186.596 32.4028 186.596 28.1589Z" fill="white"/>
<path d="M10.2894 10.7564H0V2.09524H29.9739V10.7564H19.6445V42.8923H10.3027L10.2894 10.7564Z" fill="white"/>
</g>
<defs>
<clipPath id="clip0_156_131">
<rect width="195.671" height="44" fill="white"/>
</clipPath>
</defs>
</svg>
